<?xml version="1.0" encoding="UTF-8" standalone="no"?>
<!-- Created with Inkscape (http://www.inkscape.org/) -->

<svg
   width="202.28471mm"
   height="42.663742mm"
   viewBox="0 0 202.28471 42.663742"
   preserveAspectRatio="xMidYMid meet"
   version="1.1"
   id="svg1"
   xmlns="http://www.w3.org/2000/svg"
   xmlns:svg="http://www.w3.org/2000/svg"
   xmlns:rdf="http://www.w3.org/1999/02/22-rdf-syntax-ns#"
   xmlns:cc="http://creativecommons.org/ns#"
   xmlns:dc="http://purl.org/dc/elements/1.1/">
  <title
     id="title6">TechTolk</title>
  <defs
     id="defs1" />
  <g
     id="layer1"
     transform="translate(-34.847715,-14.741865)">
    <path
       d="M 52.384629,51.006317 H 44.695176 V 21.141474 H 34.847715 V 14.741865 H 62.23209 v 6.399609 h -9.847461 z"
       id="text2"
       style="font-weight:bold;font-size:50.8px;font-family:'Open Sans';-inkscape-font-specification:'Open Sans Bold';fill:#2d93ad;stroke-width:0.264583"
       aria-label="T" />
    <path
       d="m 69.921631,-21.141153 h -7.689453 v -29.864844 h -9.84746 v -6.399609 h 27.384374 v 6.399609 h -9.847461 z"
       id="text3"
       style="font-weight:bold;font-size:50.8px;font-family:'Open Sans';-inkscape-font-specification:'Open Sans Bold';fill:#db5461;stroke-width:0.264583"
       transform="scale(1,-1)"
       aria-label="T" />
  </g>
  <g
     id="layer2"
     transform="matrix(0.77952797,0,0,0.77952797,25.767563,3.2997445)">
    <path
       d="m 150.15823,38.695618 h -6.56698 V 13.190323 h -8.40996 V 7.724902 h 23.38691 v 5.465421 h -8.40997 z m 34.19065,-11.884112 q 0,2.965732 -0.80498,5.253582 -0.7838,2.287851 -2.30903,3.876636 -1.50406,1.567601 -3.64362,2.372585 -2.11838,0.804985 -4.78753,0.804985 -2.4997,0 -4.59689,-0.804985 -2.07602,-0.804984 -3.62242,-2.372585 -1.52525,-1.588785 -2.37259,-3.876636 -0.82618,-2.28785 -0.82618,-5.253582 0,-3.940187 1.39813,-6.672897 1.39813,-2.73271 3.98257,-4.152025 2.58442,-1.419314 6.16448,-1.419314 3.32585,0 5.88909,1.419314 2.58442,1.419315 4.04611,4.152025 1.48286,2.73271 1.48286,6.672897 z m -16.37507,0 q 0,2.330218 0.50841,3.919003 0.50841,1.588785 1.58878,2.393769 1.08038,0.804985 2.81745,0.804985 1.71589,0 2.77508,-0.804985 1.08037,-0.804984 1.56759,-2.393769 0.50842,-1.588785 0.50842,-3.919003 0,-2.351402 -0.50842,-3.897819 -0.48722,-1.567602 -1.56759,-2.351402 -1.08038,-0.783801 -2.81744,-0.783801 -2.56325,0 -3.72836,1.758255 -1.14392,1.758256 -1.14392,5.274767 z m 28.17445,11.884112 H 189.6872 V 5.7336252 h 6.46106 z M 209.38814,5.7336252 V 20.477549 q 0,1.33458 -0.10589,2.66916 -0.10588,1.334579 -0.23302,2.669158 h 0.0847 q 0.6567,-0.932086 1.33458,-1.84299 0.69907,-0.910904 1.48286,-1.758256 l 6.63054,-7.202492 h 7.28723 l -9.40561,10.274143 9.97756,13.409346 h -7.45669 l -6.82118,-9.596262 -2.77508,2.224299 v 7.371963 h -6.46106 V 5.7336252 Z"
       id="text4"
       style="font-weight:bold;font-size:35.2777px;font-family:'Open Sans';-inkscape-font-specification:'Open Sans Bold';fill:#db5461;stroke-width:0.325383"
       aria-label="Tolk" />
    <path
       d="M 48.578145,38.704648 H 42.011167 V 13.199354 H 33.601199 V 7.7339336 H 56.988113 V 13.199354 H 48.578145 Z M 71.01179,14.5763 q 3.283488,0 5.656074,1.271029 2.372585,1.249844 3.664797,3.643613 1.292212,2.39377 1.292212,5.846728 v 3.135203 H 66.351354 q 0.105923,2.732711 1.631152,4.300311 1.546417,1.546418 4.279128,1.546418 2.266666,0 4.152025,-0.466043 1.885358,-0.466044 3.876635,-1.398131 v 4.999376 q -1.758255,0.868536 -3.685981,1.271028 -1.906543,0.402493 -4.639252,0.402493 -3.558879,0 -6.312773,-1.313396 -2.732711,-1.313396 -4.300311,-4.003738 -1.546417,-2.690343 -1.546417,-6.778817 0,-4.152024 1.39813,-6.905918 1.419314,-2.775078 3.940188,-4.152025 Q 67.66475,14.5763 71.01179,14.5763 Z m 0.04237,4.596886 q -1.885358,0 -3.135202,1.207476 -1.22866,1.207477 -1.419315,3.7919 h 9.066666 Q 75.545128,22.732063 75.03671,21.609322 74.549483,20.486581 73.553845,19.829883 72.57939,19.173186 71.054156,19.173186 Z M 96.4959,39.128325 q -3.516511,0 -5.995015,-1.271029 -2.478505,-1.292211 -3.770717,-3.982554 -1.292212,-2.690343 -1.292212,-6.884735 0,-4.342679 1.461682,-7.075389 1.482866,-2.753894 4.088474,-4.046106 2.62679,-1.292212 6.07975,-1.292212 2.457321,0 4.236758,0.487227 1.80063,0.466044 3.1352,1.122743 l -1.90654,4.999376 q -1.52523,-0.614331 -2.838627,-0.995638 -1.313395,-0.402493 -2.626791,-0.402493 -1.694703,0 -2.817445,0.804985 -1.122742,0.7838 -1.67352,2.372585 -0.55078,1.588785 -0.55078,3.982555 0,2.351401 0.593148,3.897818 0.593146,1.546418 1.715887,2.309035 1.122742,0.741432 2.73271,0.741432 2.012462,0 3.580058,-0.529595 1.56761,-0.550778 3.05047,-1.525233 v 5.528972 q -1.48286,0.932088 -3.11402,1.334579 -1.609966,0.423677 -4.08847,0.423677 z M 115.64606,5.742656 v 6.715264 q 0,1.758256 -0.1271,3.347041 -0.10589,1.588785 -0.16948,2.245482 h 0.33894 q 0.76262,-1.22866 1.80062,-1.991277 1.05919,-0.762617 2.33022,-1.122741 1.27104,-0.360125 2.73271,-0.360125 2.56324,0 4.46979,0.910904 1.90654,0.88972 2.96573,2.817446 1.05918,1.906541 1.05918,4.957008 v 15.44299 h -6.46106 v -13.83302 q 0,-2.542057 -0.93208,-3.834269 -0.93209,-1.292212 -2.881,-1.292212 -1.94891,0 -3.07164,0.910904 -1.12275,0.88972 -1.58879,2.647975 -0.46604,1.737071 -0.46604,4.257943 V 38.704648 H 109.185 V 5.742656 Z"
       id="text5"
       style="font-weight:bold;font-size:35.2777px;font-family:'Open Sans';-inkscape-font-specification:'Open Sans Bold';fill:#2d93ad;stroke-width:0.325383"
       aria-label="Tech" />
  </g>
  <metadata
     id="metadata6">
    <rdf:RDF>
      <cc:Work
         rdf:about="">
        <dc:title>TechTolk</dc:title>
      </cc:Work>
    </rdf:RDF>
  </metadata>
</svg>
